HIERARCHY
ROOT Hips
{
  OFFSET 36.1108 12.0145 38.273
  CHANNELS 6 Xposition Yposition Zposition Zrotation Xrotation Yrotation
  JOINT ToSpine
  {
    OFFSET -0.0105055 1.38907 -7.13956
    CHANNELS 3 Zrotation Xrotation Yrotation
    JOINT Spine
    {
      OFFSET 0.0105055 10 1
      CHANNELS 3 Zrotation Xrotation Yrotation
      JOINT Spine1
      {
        OFFSET 0 12 1.60637
        CHANNELS 3 Zrotation Xrotation Yrotation
        JOINT Neck
        {
          OFFSET 0 27 2.26658
          CHANNELS 3 Zrotation Xrotation Yrotation
          JOINT Head
          {
            OFFSET 0 9 2.12705
            CHANNELS 3 Zrotation Xrotation Yrotation
            End Site
            {
              OFFSET 0 11 2
            }
          }
        }
        JOINT LeftShoulder
        {
          OFFSET 8 19.6109 2.86452
          CHANNELS 3 Zrotation Xrotation Yrotation
          JOINT LeftArm
          {
            OFFSET 12 1 0.681055
            CHANNELS 3 Zrotation Xrotation Yrotation
            JOINT LeftForeArm
            {
              OFFSET 19 0 -1.52608
              CHANNELS 3 Zrotation Xrotation Yrotation
              JOINT LeftHand
              {
                OFFSET 23 0 0
                CHANNELS 3 Zrotation Xrotation Yrotation
                End Site
                {
                  OFFSET 10 0 0
                }
              }
            }
          }
        }
        JOINT RightShoulder
        {
          OFFSET -8 19.6109 2.86452
          CHANNELS 3 Zrotation Xrotation Yrotation
          JOINT RightArm
          {
            OFFSET -12 1 0.681055
            CHANNELS 3 Zrotation Xrotation Yrotation
            JOINT RightForeArm
            {
              OFFSET -19 0 -1.52608
              CHANNELS 3 Zrotation Xrotation Yrotation
              JOINT RightHand
              {
                OFFSET -23 0 0
                CHANNELS 3 Zrotation Xrotation Yrotation
                End Site
                {
                  OFFSET -10 0 0
                }
              }
            }
          }
        }
      }
    }
  }
  JOINT LeftUpLeg
  {
    OFFSET 9 -7.17245 0
    CHANNELS 3 Zrotation Xrotation Yrotation
    JOINT LeftLeg
    {
      OFFSET 0 -44.1113 0
      CHANNELS 3 Zrotation Xrotation Yrotation
      JOINT LeftFoot
      {
        OFFSET 0 -36.1829 0
        CHANNELS 3 Zrotation Xrotation Yrotation
        JOINT LeftToeBase
        {
          OFFSET 0 -4.84184 13
          CHANNELS 3 Zrotation Xrotation Yrotation
          End Site
          {
            OFFSET 0 1 6
          }
        }
      }
    }
  }
  JOINT RightUpLeg
  {
    OFFSET -9 -7.17245 0
    CHANNELS 3 Zrotation Xrotation Yrotation
    JOINT RightLeg
    {
      OFFSET 0 -44.0551 0
      CHANNELS 3 Zrotation Xrotation Yrotation
      JOINT RightFoot
      {
        OFFSET 0 -36.1469 0
        CHANNELS 3 Zrotation Xrotation Yrotation
        JOINT RightToeBase
        {
          OFFSET 0 -4.92256 13
          CHANNELS 3 Zrotation Xrotation Yrotation
          End Site
          {
            OFFSET 0 1 6
          }
        }
      }
    }
  }
}
MOTION
Frames:	8
Frame Time:	0.0333333
36.1108 12.0145 38.273 8.37579 80.4995 -3.01665 0 0 0 3.10701 -0.638639 -0.0218582 -6.32343 -0.986978 0.44783 11.9454 -43.236 -2.58697 -4.99777 2.41854 -2.30443 -18.4964 3.11681 -8.88047 -23.2207 5.79427 14.2285 41.3344 -28.7355 -118.66 9.92502 -0.302012 -3.46832 9.504 2.11578 8.98263 36.1726 4.04193 -20.7997 -38.166 -27.7492 120.642 -14.6378 -0.465201 3.62075 4.12224 5.15132 2.2187 1.18371 26.1677 -24.6352 20.133 -32.7687 5.97576 1.3691 -0.123246 -5.72722 -2.03771 10.3516 -11.509 1.42336 19.551 5.27683 -14.8012 -29.354 -3.89688 5.30775 -20.7246 -5.20403 
36.1108 12.0145 38.273 8.39168 80.4993 -3.03689 0 0 0 3.12706 -0.631901 -0.0218582 -6.37367 -1.00593 0.447832 11.9555 -43.1683 -2.56787 -4.96787 2.35773 -2.29109 -18.5146 3.10126 -8.81092 -22.669 5.13003 13.9034 36.1641 -26.3497 -121.268 9.23977 -0.243639 -3.01824 9.55551 2.1265 9.01143 36.1597 4.06247 -20.8295 -38.0791 -27.6888 120.67 -14.7453 -0.472841 3.65315 4.11865 5.14555 2.22102 1.1829 26.1826 -24.7102 20.0889 -32.8165 5.97152 1.32742 0.0435753 -5.56222 -1.98048 10.3161 -11.3051 1.34962 19.5819 5.02414 -14.7821 -29.333 -3.88889 5.33767 -20.8459 -5.18106 
36.1108 12.0145 38.273 8.42595 80.4989 -3.08199 0 0 0 3.15591 -0.612134 -0.0218581 -6.44864 -1.04406 0.447837 11.9395 -43.0359 -2.55791 -4.90419 2.2487 -2.28568 -18.5527 3.07771 -8.70101 -22.2955 4.68525 13.6215 32.2533 -24.1967 -123.005 9.21101 -0.232097 -2.88026 9.70809 2.15191 9.05891 35.9282 4.07268 -20.915 -37.8189 -27.5739 120.81 -14.8803 -0.479599 3.67126 4.10144 5.12792 2.16576 1.19402 26.2359 -24.9292 19.8679 -33.0428 5.94771 1.16323 0.821498 -4.95605 -1.88345 10.2643 -10.9578 1.22773 19.6205 4.61221 -14.7612 -29.2809 -3.87612 5.39342 -21.097 -5.22554 
36.1108 12.0145 38.273 8.44827 80.496 -3.10232 0 0 0 3.15791 -0.592852 -0.0218581 -6.47247 -1.07675 0.447842 11.8501 -42.9162 -2.57336 -4.80535 2.154 -2.30378 -18.6166 3.06399 -8.6186 -22.0054 4.36228 13.4149 29.4526 -22.538 -124.168 9.11583 -0.216201 -2.71173 10.0201 2.19687 9.11361 35.2321 4.03836 -21.067 -37.2904 -27.3786 121.127 -15.0168 -0.487124 3.69297 4.08052 5.10809 2.06284 1.21327 26.2937 -25.0991 19.63 -33.2937 5.92189 0.995703 1.68655 -4.36435 -1.80437 10.2343 -10.6867 1.13779 19.6387 4.28279 -14.734 -29.2439 -3.86388 5.43667 -21.2621 -5.16087 
36.1108 12.0145 38.273 8.47864 80.4874 -3.13439 0 0 0 3.16688 -0.565434 -0.0251267 -6.52171 -1.10187 0.447846 11.8377 -42.782 -2.57644 -4.75965 2.05009 -2.3053 -18.6232 3.04697 -8.54878 -21.9315 4.21082 13.2861 27.8251 -21.474 -124.745 9.13257 -0.224108 -2.8055 10.4691 2.25557 9.15579 34.2714 4.00048 -21.2281 -36.5936 -27.1141 121.543 -15.2189 -0.485676 3.65012 4.06047 5.08098 1.94044 1.2351 26.3883 -25.3865 19.2947 -33.6889 5.89243 0.845975 3.03598 -3.94747 -1.72579 10.2177 -10.4205 1.05239 19.6426 3.95819 -14.7413 -29.1795 -3.85578 5.46899 -21.3715 -5.06965 
36.1108 12.0152 38.2727 8.37603 80.4854 -3.02724 0 0 0 3.22185 -0.549116 -0.031619 -6.58679 -1.11023 0.448383 11.894 -42.6671 -2.56101 -4.75226 1.94857 -2.29083 -18.5978 3.03144 -8.49894 -21.9449 4.11664 13.2039 26.8463 -20.836 -125.097 9.11202 -0.227138 -2.84982 10.7916 2.29393 9.16385 33.6185 3.98293 -21.3047 -36.0973 -26.8796 121.802 -15.5151 -0.486943 3.64581 4.07439 5.09415 1.97504 1.23163 26.3524 -25.1339 19.5363 -33.397 5.91286 1.01012 2.13153 -4.47871 -1.66198 10.1831 -10.2671 1.00234 19.6858 3.73421 -14.7674 -29.134 -3.85414 5.52599 -21.6458 -5.17339 
36.1108 12.0177 38.2711 8.29879 80.4742 -2.93017 0 0 0 3.21709 -0.527495 -0.0202621 -6.54302 -1.10743 0.450231 11.6725 -42.6001 -2.63872 -4.60459 1.90631 -2.3651 -18.6408 3.03454 -8.49225 -21.9139 4.10285 13.1498 26.4411 -20.5397 -125.204 9.03622 -0.235182 -2.97578 11.0452 2.31274 9.10825 32.8765 3.94404 -21.3806 -35.6139 -26.713 122.111 -15.6068 -0.488559 3.5925 4.06373 5.09009 1.83966 1.25766 26.3799 -25.1198 19.4231 -33.4766 5.89273 0.920478 2.42155 -4.15983 -1.61275 10.1914 -10.1717 0.977088 19.683 3.60898 -14.7481 -29.1245 -3.85654 5.53981 -21.7013 -5.16344 
36.1108 12.0204 38.268 8.25893 80.4595 -2.87041 0 0 0 3.22386 -0.512719 -0.0197508 -6.5587 -1.09655 0.453291 11.6637 -42.4991 -2.65882 -4.57693 1.83465 -2.37996 -18.5899 3.02939 -8.49438 -21.9978 4.09485 13.1369 26.1975 -20.3215 -125.217 8.91431 -0.251364 -3.22388 11.3334 2.34134 9.08518 32.2226 3.90532 -21.4466 -35.1939 -26.5525 122.368 -15.6822 -0.48914 3.54789 4.06768 5.08036 1.76612 1.26747 26.4262 -25.1699 19.3594 -33.5651 5.88936 0.889109 2.71426 -4.06776 -1.56647 10.2012 -10.0804 0.952307 19.6824 3.46095 -14.7788 -29.1001 -3.85985 5.5528 -21.7404 -5.1134 
